<svg width="100%" height="100%" id="svg" viewBox="0 0 1440 600" xmlns="http://www.w3.org/2000/svg" class="transition duration-300 ease-in-out delay-150"><defs><linearGradient id="gradient" x1="0%" y1="50%" x2="100%" y2="50%"><stop offset="5%" stop-color="#002bdc88"></stop><stop offset="95%" stop-color="#32ded488"></stop></linearGradient></defs><path d="M 0,600 C 0,600 0,200 0,200 C 123.50239234449762,170.83253588516746 247.00478468899524,141.66507177033492 338,147 C 428.99521531100476,152.33492822966508 487.48325358851673,192.17224880382776 564,197 C 640.5167464114833,201.82775119617224 735.0622009569377,171.64593301435406 849,177 C 962.9377990430623,182.35406698564594 1096.2679425837323,223.244019138756 1198,233 C 1299.7320574162677,242.755980861244 1369.8660287081339,221.377990430622 1440,200 C 1440,200 1440,600 1440,600 Z" stroke="none" stroke-width="0" fill="url(#gradient)" class="transition-all duration-300 ease-in-out delay-150 path-0"></path><defs><linearGradient id="gradient" x1="0%" y1="50%" x2="100%" y2="50%"><stop offset="5%" stop-color="#002bdcff"></stop><stop offset="95%" stop-color="#32ded4ff"></stop></linearGradient></defs><path d="M 0,600 C 0,600 0,400 0,400 C 123.31100478468898,364.7177033492823 246.62200956937795,329.43540669856463 335,345 C 423.37799043062205,360.56459330143537 476.82296650717706,426.9760765550239 562,441 C 647.1770334928229,455.0239234449761 764.0861244019139,416.66028708133973 870,389 C 975.9138755980861,361.33971291866027 1070.8325358851675,344.3827751196172 1164,348 C 1257.1674641148325,351.6172248803828 1348.5837320574162,375.8086124401914 1440,400 C 1440,400 1440,600 1440,600 Z" stroke="none" stroke-width="0" fill="url(#gradient)" class="transition-all duration-300 ease-in-out delay-150 path-1"></path></svg>